<svg width="46" height="46" viewBox="0 0 46 46" fill="none" xmlns="http://www.w3.org/2000/svg">
<path d="M13.4165 42.1663C12.3623 42.1663 11.4599 41.791 10.7092 41.0403C9.95852 40.2896 9.58317 39.3872 9.58317 38.333C9.58317 37.2788 9.95852 36.3764 10.7092 35.6257C11.4599 34.875 12.3623 34.4997 13.4165 34.4997C14.4707 34.4997 15.3731 34.875 16.1238 35.6257C16.8745 36.3764 17.2498 37.2788 17.2498 38.333C17.2498 39.3872 16.8745 40.2896 16.1238 41.0403C15.3731 41.791 14.4707 42.1663 13.4165 42.1663ZM32.5832 42.1663C31.529 42.1663 30.6266 41.791 29.8759 41.0403C29.1252 40.2896 28.7498 39.3872 28.7498 38.333C28.7498 37.2788 29.1252 36.3764 29.8759 35.6257C30.6266 34.875 31.529 34.4997 32.5832 34.4997C33.6373 34.4997 34.5398 34.875 35.2905 35.6257C36.0412 36.3764 36.4165 37.2788 36.4165 38.333C36.4165 39.3872 36.0412 40.2896 35.2905 41.0403C34.5398 41.791 33.6373 42.1663 32.5832 42.1663ZM9.9665 7.66634H38.2373C38.9721 7.66634 39.5311 7.99377 39.9144 8.64863C40.2978 9.30349 40.3137 9.96634 39.9623 10.6372L33.1582 22.9038C32.8068 23.5427 32.3356 24.0379 31.7446 24.3893C31.1537 24.7406 30.5068 24.9163 29.804 24.9163H15.5248L13.4165 28.7497H36.4165V32.583H13.4165C11.979 32.583 10.8929 31.9521 10.1582 30.6903C9.42345 29.4285 9.3915 28.1747 10.0623 26.9288L12.6498 22.233L5.74984 7.66634H1.9165V3.83301H8.14567L9.9665 7.66634Z" fill="black" style="fill:black;fill-opacity:1;"/>
</svg>
